<?xml version="1.0" encoding="UTF-8"?>
<svg version="1.1" viewBox="0 0 1024 1024" width="1280" height="1280" xmlns="http://www.w3.org/2000/svg">
<path transform="translate(764,77)" d="m0 0 5 2 9 6 10 7 9 5 10 8 9 7 8 6v2l4 1 7 7 10 8 7 6 8 7 13 12 6 7-1 5-11 9-10 7-13 9-12 8-10 7-7 4-6 2-10 8-11 12-8 10-5 6-7 9-19 3-16 4-13 5-23 12-11 5-19 8-9 4-15 6-8 4-11 3-3 1v4l13-3 5-1 12-3 10-5 13-4 10-5 11-4 12-6 17-5 23-5 20-7 11-4 10-14 11-11 5-7h2v-2l10-8 8-4 10-3 11-5 12-4 11-5 13-5 19-8 4-1 6 5 4 7 5 7v2l3 1 4 7 9 14 18 30 5 7 6 12 6 10 6 12 7 17 3 6 3 7 8 20 2 4-1 6-7 10-6 7-8 7-16 16-11 9-8 7h-2l-2 4-10 8-11 10-2 3h-2l-2 4-15 20-3 1h-15l-21 2h-15l-2 5-9 16-7 10-6 13h-2l-3 10-6 12-3 10-13 3-16 3-15 5-16 7-10 5-8 3-16 2-8 20-9 17-7 10-14 14-10 7-18 13-12 8-7 5-9 4-15 8-6 8-10 14-2 3h-2l-2 5-8 11-14 21-6 15-6 11-6 10-13 2-12 5-19 9-16 8-10 3-11 3-4 11-4 10-3 2-1-1-4 14-3 7-4 10-9 19-5 4-11 23-7 12-8 10-11 14-10 16-10 11-7 8-3 1-16-5-15-7-17-7-15-7-16-8-23-13-4-3 1-8 6-13 3-9 3-10 3-9 4-13 4-16 7-22 2-5 5-21 5-5 14-7 17-8 19-10 13-6 3-12 2-15 1-2 1-14v-35l3-12 5-12 7-16 7-6 12-6 3-1 2-4 13-8 6-8 2-4 5-3 3-3 12 9 21 11 19 7 24 4h21l1-1 18-2 16-5 16-8 13-8 12-9 12-11 9-11 11-16 7-16 4-10 3-13 2-18v-20l-4-25-4-11-5-12-13-22-9-11-5-5-10-9-9-7-17-10-22-9-20-5h-34l-12 2-24 8-16 8-11 7-8 6-10 9-9 10-4 6h-2l-2 5-9 15-6 15-3 9-4 20-1 9v17l2 17 7 21 6 14 7 11 3 6 13 16 3 2-1 3-3 1-3 3-14 11-35 24-13 10-24 14-32 16-11 6-10 6-16 8-15 8-8 4-9 6-11 6-9 7-5 4-2 5 10-3 13-6 13-5 6-3 18-12 9-4 16-8 19-9 11-6 15-10h3v5l-1 1v17l1 3 1 5 3 14 1 1 1 33-6 5-12 5-18 8-16 6-16 7-8 1-1 10-1 1-4 37-2 9-2 18-3 17-2 9-7 8-16 16-4-2-12-8-12-9-7-5v-2l-4-2-13-12-16-15-7-7v-2l-3-1v-2h-2l-7-8-7-7-7-8-1-3-4-2-8-11-6-9-6-8-1-1h-11l-8 1-7 2-14 3-5 2-6-1-1-2 4-4 8-4 9-3 14-2h18l10-1 8-3 18-6 12-6 11-3 6-2 11-3 7-3 5-6h2v-5l-8-2h-13l-13 2-33 7-24 5-11 1h-9l1-8 10-22 4-9 9-20 9-19 10-17 7-9 2-4h2l1-4 8-13 6-10 7-10 5-10 6-13 3-5 3-1 2 1 1-5 10-7 9-5 24-15 3-9 8-16 8-11 10-4 2-2 3-8v-5l6 2h7l17-11 16-11 14-10 16-13 12-11 9-7 5-5 13-9 7-4 3-4 5-13 6-11 4-5 8-7 7-7 6-12 4-15 4-12 8-16 7-12 6-15 3-9 3-16 4-16 5-15 7-14 5-11 8-20 7-30 8-14 7-9 8-8 8-11 4-3-1 6-7 13-4 4-2 4h-2l-2 5-4 6-5 12-4 17-2 7-3 9-8 19-5 14-8 13-4 16-2 9-5 22-5 12-7 14-4 10-5 6-4 10v6l2 4-2 1-2 13-6 10-10 10h-2v2l-12 9-3 4-3 13-6 8-10 8-13 7-10 11-9 7-14 12-12 9-9 7-10 7-13 8-14 8-12 4-2 2h-3v2l-3 3h-2l-2 4-5 7-2 2-5 12-8 13-3 5-22 13-11 8-8 8-7 8-7 10-10 19-6 9-5 10-4 7v2l6-1 1-4 3-1v-2h2v2l4-2 1-4h2v3l8-1 1-1h5l1-4 4-1 1-3v3l3-1 1 4h2v-4h2l-1-5 6 1 1-4 4-2 1 3h4l1-4 9-3h5l1-3h4v-2l5-4 5 1 1-4 1 3 5-2h2 3l-2-3v-3h2l1 4h2v-4l8 1h3l1-3h3v-2l4-1 1-3 5-1v2l3-3h3v2h-2l-1 4h4v-2h2l-1-6 7-4 3-1 5-1 2-4h2v3h6l3-3-2-1 3-2 2 1 1-3 4-1 1-2h-2l1-2h4v2l4-3h2l2-2 3-1 1-6 5-1 5-2h6l4 5 14 28 11 16 9 12 4-2 10-9 5-3-1-4-8-11-10-15-7-14-6-16-3-9-2-13-1-1v-35l1-2 3-20 6-16 8-16 7-12 10-13 9-11 7-6 8-7 11-7 12-6 12-1 12-3 12-6 5-4 16-9 12-9 6-3 17-10 13-5 11-1 3-10 6-12 3-13h2l1-8 2-10 4-7 17-10 9-5 14-9 9-3v-17l3-16 1-8 2-5 3-14 4-9 7-18 3-3 20-7 16-4 6-2 24-4 7-2 8-1 9-21 9-12 7-12zm161 194 1 7h-2v2h-2v-2l-4-1-1 3h-2l1-3h-4l-1 4 1 3-4-1-1 3h-3v5h-3v-3h-2l-2 2-1-2-5 2 1 2-3 1v2l4 2-3 4v5l-5-2-4 1-3 1-2 4v4l-6 1v-2h-3v2l-2-2-1-3-6-1 1 9-2 1 1 4h-2v-2h-5v2l-5 2-11 1-3 6-1 7-15 1-4 4v3h-2v2l-4-2-2 3h-11v4l-2-4-2 1 2 7-1 3-4-1-1 2-8-2-7 3 1 6-9 3v2h-2v-2l-5-1v2l-4-1-4 3h-3l1 4 1 1-3 1-2 3-4 1v-2h-3l-1 5v5l-6-1-1 4-10 1-4 1-2 9h-7l-6-1-1 5h-3l-1 3-5-1h-2l1 3-12 6-4 1 1 4-4-4-9-14-10-13-8-10-5-5-16-15-15-10-17-10-9-4-15-6-11-3h-8l-5 4-11 7-12 6-2 5 19 1 16 4 15 5 12 5 16 8 9 7 6 4 12 11 10 10 8 11 6 9 9 18 3 10 3 9 3 13 2 19v20l-3 19-4 16-4 10-8 16-7 10-6 8-7 8-8 9-8 7-16 11-9 6-13 6-15 5-12 3-18 2h-16l-18-2-21-5-13-5-6-3h-3v-2l-17-8-4-1-7 7-12 7v2l11 7 17 10 9 4 15 6 14 4 28 5-1 5 1 3-2 2 3 3-1 5-1 6h2l1 2-3 1v12l-1 8-2 5 2 4-4-2-1 3h2l-1 9-1 2h-2v2h3v2h-2l-1 6 1 2h-2l1 3-2 1-2 6 1 3h-2l1 4-1 4-1 1 3 7 1 2h5l1-3 4-1 14-8 11-4 9-3 5-7 15-30 8-13 11-14 7-9 6-7 4-7 5-7 3-3-3-1v-7h-2v-4l-3-2 13-8 11-7 14-12 11-10 7-8 9-11 9-14 14-28v-2h2l2 4 11 7 1 2 7 1 5-6 18-1 14-6 12-6 13-5 10-2 7-2 13-2 3-5 6-15 10-18 6-9 9-14 5-9 6-9 30-2 12-2h12l3-5 4-7 5-5 5-6 8-7 13-11 4-2 5-6 9-7 11-10v-2l4-2 7-7 8-10 6-6-1-10-4-11-6-16-4-9-3-6-3-7-6-13-2-6-3-3-5-9-4-6-7-3-4 2-1 2h-3l-1-3z" fill="#FAFAF9"/>
<path transform="translate(1013,420)" d="m0 0h1l2 9 4 58 1 11-4 8-12 12-10 13-12 13-9 11-5 5h-2l-2 7-6 11-4 4-3 8-9 15-7 9-2 5h-3l-2 5-3 9-5 2-2 4-12 16-9 11-10 9-4 1-2 4-11 13-11 9-1 2-7 1-5 5-3 5-7 9-5 12-5 4-8 6-1 2h-2l-2 5-10 10-4 10-3 3-4-2-4-10-4-16-2-5-9-4-16-8-36-15-10-5-8-16-6-8-4-4v-2h-2l-9-14-1-1h-7l-4 3 1 5 5 5 8 11 4 5 8 7 5 6 5 9v5l10 3 17 6 20 9 7 3 6 2 7 1 3 13 3 9 4 11 2 8v13l-5 8-6 8-3 7-2 14-4 4-5 2-1 3-6 3-9 10-10 7-9 7-9 8-9 11-10 10-7 8-5 4h-2l-2 4-9 16-10 12-10 16-1 2h-2l-2 6-4 7-4 9-4 8-11 5-16 4-19 3-2 1-26 3-3 1-11 1h-69l-11-1-7-2-15-2-10-2-20-3-7-2-15-4-4-4 5-12 8-16 8-17 3-10 2-10 7-14 4-9 10-14 7-9 8-10 4-7 4-8 3-10 2-10 2-4h2v-5l4-2v2l10-2 9-3 5-3 22-7 13-5 14-6 4-11 5-13 3-5 4-11 6-10 11-12 6-8 9-9 7-8 12-13 9-8 19-11 20-12 13-9 24-12 4-5 4-10 5-14 8-16 7-11 9-4 11-4 28-11 12-3 6-2 12-3 7-1 12-2 2-7 5-14 7-16 8-16 8-17 5-3 5-1v-2l7 1 30-7 9-7 11-12 5-6 26-6 25-10 23-11 10-7zm-12 20-9 4-19 8-19 6-12 3-9 2-20 20-10 6-13 4-17 3-14 3-5 18-12 23-4 9-5 11-3 10-2 3-20 1-23 6-15 5-22 10-6 2 2 4h5 4l2 4h2l3 4 4 4 2-1 1 2h8l5 3 1 2h3l1 3 6-1v3l4 1v3l9 1 4 1 1 3h6v-3l3 1 3-1 2 10 4 1 8 1h4l2 9h7l1-3h2l-1 5h2v4l5-2 1-1 5 6h2v-2h8v2l-3 1 1 4h3l2 2 6-2 2 1 5-5 1-3 4-2 14-16 4-7 8-10 10-17 8-10 16-28 7-10 8-10 7-7 11-14 14-15 6-6v-35l-2-21-2-10zm-245 165m-142 108-6 5-5 7-6 5-7 8-3 3v2l-4 2-7 8-4 6-3 9-4 7-5 10-5 20-8 4-15 7-14 5-10 4-13 5-9 8-1 5-3-1 1 9-1 7h2l-1 4 1 2h2l-3 7 3 5-1 1v5l1 3v6h-2l1 6h-2l-1 9 1 9 3 3-2 1-2 5 1 4h3v2h-2v2l-4-1 4 8h3l-4 4-1 7h3l-2 1 2 4 1 1-3 1-1 7-2 4 2 1v7l2 1v8 1h-2v-2l-3 1v6h-3l-3 3 1 4 15 1 14 1 3 1 13-1 43-2 14-2 25-4 19-4 10-4 3-8 10-13 4-7 7-11 10-13 7-11 3-5 7-9 10-8 7-11 7-5v-4h-2v-2h-2v-6l-3-2-1-5-3-1v-2h2l-2-4-5-9-1-4h-3v-5l-2-4-2-2-1-3-2 1v-2h2l-2-4-3-1 1-3-1-2-3-1-1-5h-2v-2h-2l1-4h-2l-2-6-2-5v-2h-2v-2h-3v-4h2l-1-3h-2v-2h-2l-1-5-1 2h-2l2-5-3-1-2 1 2-4-3-3-1-6-2-3-3-1-1-5h-3v-5h-2l-1-4-5-9-1-4-2-5h-3l1-4h-2l-1-5-3-4z" fill="#FAFAF9"/>
<path transform="translate(233,95)" d="m0 0 2 2 3 16 5 19 4 5 12 7v4l5 1 1 3 4 1 8 6v19l-1 1-3 18-2 4-1 12 7 6 8 7 8 10 6 8 10 12 4 9 3 16 1 1 1 24 12 3 21 10 19 11 10 5 10 1-2 6-7 12-12 26-7 16-6 10-9 10-10 10-11 9-14 11-5 4-16 10-17 11-10 6-7-4-14-9-6-5-9-11-4-4-3-5-5-5v-2l-4-1-10-7-6-7-8-7-9-9v-2l-3-1-9-17-17-16-3-2v-2l-4-2-5-6-4-7-7-11-9-12-4-4-11-9-11-10-8-7-7-10-5-9v-6l7-11 8-11 7-11 4-5 3-5 11-14 6-8 8-9 4-6h2l2-4 37-37 8-6 5-5 10-8 11-9 5-4 8-7 11-9zm-84 233-4 5 2 5-8 2 4 6 8 11 6 7 3 5 10 6 24 32 14 14 4 6 13 9 11 14 8 7 6 4 8 6 7-1 19-10 16-11 12-9 7-6v-2l-5-3h-2v-2l-4-3v-3l-7-2v-3h-4l2-1v-2h-3v-3h-3l-1 3-1-2-4-2-1-2-4 1-2 1v-3h-3l1-3h-6l-2 2-1-6h-3v-2l-3-1h-3l-5-4-2 1v-2h3v-3h-6l1-3h-4v2h-3v2l-2-2v-4l-3 1v-2h2v-2h-2l-1-5-2 1-1 5-3 1-1 2-1-4h-11l-3-6-3-1 1-3-3-1-1-4-4-1h-6l-3 2v-2l-4-1v-2l3-1-3-5-7 1 1-3-5-1-1-3h-7l1-3-2-3h-3l-1 2-2-3h-6l-3 1-1-5-1-3h-4v-3z" fill="#F9F9F8"/>
<path transform="translate(552,11)" d="m0 0h9l21 3 17 3 42 9 18 5 17 5 24 10 9 3 10 4 11 4 7 3 1 3-5 12-7 13-4 8-7 9-6 3-20 3-7 2-13 3-8 3-16 4-15 4-1 1-3 20-8 32-3 9-3 17-4 6-8 10h-2l-2 4-9 10-10 13-8 17-4 11-5 7h-2v6l-5 5-10 6-5 6-10 6-14 9-16 12-13 9-10 7-10 6-9 3 5-6 14-11 5-6 13-9 11-6 6-7v-10l1-6-1-12-1-2h2l-1-19 1-8-2-1 1-4-1-6 3 1-2-9 1-8v-6l-1-5v-2h3l-3-6 1-4 2-6h-2v-2h2l-1-12 1-2 1-18-1-5 2-8 4-15v-7l-2-1h2l1-8 1-1v-10l-2-4 2-3 6-29 5-17 2-11 1-1 1-7-9 5-7 6-3 4-3 14-2 6-3 11-12 25-14 21-9 10-10 13-9 11-3 5-8 3-3 1 2-6 4-4 3-5 9-11 6-8 10-11 10-14 6-11 9-19 2-11 1-7-7 2-10 5-2 2-8 3-10 7-19 14-16 12-6 5-3-1 14-14h2l1-3 14-11 11-9 22-14 14-10 12-9 14-12 6-5 1-2 4-2 7-8z" fill="#FBFBFA"/>
<path transform="translate(1021,531)" d="m0 0h1l-1 18-3 17-2 19-2 8-3 20-2 7-3 14-10 30-3 10-5 12-3 10-4 8-3 8-8 17-9 17-5 9-5 7-5 9-4 5-4 7-5 6-3 5-6 8-3 5h-2l-2 5-12 13-10 13-18 18-7 9-7 14-4 6h-1v-11l3-10v-6l-1-1-15-2-15-7-7-4-15-16-3-6-2-15 3-12 5-9 7-13 4-10 5-10 6-7 8-7 4-5 7-11 11-11 12-6 9-8 4-10 6-8 5-5h3l2-5h2l1 5-1 2 1 2h3v4l3 1-1 2 3-2-1-3h2l1 4 6-1 1 3 5 1-1 5h7v3l5-1 1 4 8-1 1-4h2l-1 4 3 1 1 1h2l2 2h3l1-3 1 2 6-1 2-5 7-18 9-28 4-14 6-25 6-28 2-28-5 1-8 5-7 4-3-1 4-5 6-4 10-8 9-7 7-7z" fill="#FAFAF9"/>
<path transform="translate(60,294)" d="m0 0 5 2 11 8 10 8 9 7v2l4 2 3 2 6 2 5 9 6 12 17 16 16 16 8 14 4 5 2 1v2l5 2 11 10 10 8 7 8 11 11 11 14 12 14 4 7v6l-8 21-6 9-8 10-8 11-8 9-9 7-11 7-8 6-14 11-9 5-3 6-4 13-7 14-9 15-7 10-9 10-7 7-8 11-9 14-8 14-11 16-7 10-8 16-13 20-4 7-3 10-4 1-1 6-13 16-8 8-3 1-1-2 7-15h2l2-6 7-11 6-8 12-19 6-9 4-5 4-7-3-12-4-10-6-16-5-12-6-15-3-13-2-5-3-9-4-22-2-7-3-16-2-18-2-25-1-24-1-6v-24l1-3 4-51 3-13 5-21 6-20 7-21 4-10 9-21 3-8 9-19zm7 12-4 8-2 5-7 12-5 12-5 13-4 9-8 25-2 9-2 6-3 17-2 8-2 16-1 3-3 40v28l2 36 4 29 3 16 3 17 8 28 3 9 4 13 6 16 8-1 1-2h3 9 3l1-3h-3v-3h4v-3l4-1 1-5h3l4-6 9-12 6-7 5-4 5-6v-2l4-2 3-9 7-12 4-9 11-20 7-6 10-6 8-6 13-9 6-4 10-9 8-9 10-14 6-9 7-17 1-9-3-6-5-6-12-17-10-12-5-8-8-4-15-10-14-14-6-11-20-20-10-7-4-5-8-13-5-10-4-4h-2l-2-4-7-6-13-10-4-3z" fill="#F9F9F8"/>
<path transform="translate(789,825)" d="m0 0h2l2 5 1 9 3 6 11 7 16 8 9 7 2 6 3 1 2 5v9l-3 6-11 8-10 8-13 10-17 12-8 5-3 1-1 2-8 4-14 8-15 8-14 6-12 6-20 7-12 5-12 4h-3l3-12 8-16 9-17 7-14 20-20 9-12 5-6 6-4 11-9 12-12 12-9 5-3 10-3 4-4 1-18zm-68 88-5 3-8 7-6 5-10 19-8 16-2 5 2 1 22-8 12-5 16-8v-2l3-1 1-4-5-4-2-6h-2v-5l-3-1v-3h-3l-1-9z" fill="#FBFBFA"/>
<path transform="translate(512,10)" d="m0 0h9l-2 6-5 8-5 5-5 6-6 4-5 5-6 7-13 10-13 9-12 11-16 13-15 15-5 3-3 3h-2v2l-11 8-10 7-9 7-17 12-16 10-36 18-9 7h-3v2l-4 1-2-2 1-18 1-1v-17l-8-6-3-5-3-7-4-9-9-20-3-7-3-11-1-8 16-8 15-8 14-6 13-5 20-8 13-5 16-5 19-5 9-3 24-5 20-4 22-3zm-36 14-14 1-20 3-19 3-16 3-13 3-21 6-9 3-13 4-17 6-12 5-20 9-12 6-5 3v7l1 3 4 1v4h2l2 7h2v2l-3 1 2 3h2l2 6 2 5h2l1 4 3 2-3 1 2 1 1 4 4 5 1 4 4 8 2 6 2 9 1 2 5-1 6-4 7-5 8-4 18-11 10-7 11-7 14-11 14-12 10-9 11-9 7-7 8-7 11-9 9-6 14-12 10-10 6-4v-5z" fill="#F9F9F8"/>
<path transform="translate(361,167)" d="m0 0h11l5 3 5 2 9 5 5 2h12l5 4 5 3 10 1 10 2 7 3 9 2 1 2-5 10-6 20-2 9-5 12-4 11-2 6-5 16-3 9-6 12-12 14-6 6-4-1v-2l-4-1-11-6-20-9-18-6-3-4-5-24-5-11-18-22-11-14-10-14v-5l6-5 7-4 10-6 7-3 20-8 17-7zm1 9-10 4-11 4-7 3v3l3 5 2 5 2 4 2 1 1 5 3 4 1 5h3v3h3l-1 3 1 5 4 4 3 8 2 1 1 5 1 2h2l1 5 2 2 1 5h2v2h2l3 9 2 5h2l2 6 3 3 1 4 2 1 3 6 1 6v4l5 1v2h2l6-10 4-7 5-12 10-29 8-20 4-13 3-12 2-5v-4l-13-3-10-3-9-2-21-6-11-4-8-5z" fill="#FAFAF9"/>
<path transform="translate(106,252)" d="m0 0h2l-1 4-1 2h2v3h6l-2 6h-2l1 4 5-3 3 1-1 8 3-2 5 1 1 1 1-3-2-1 1-2h7l1 4-4 2 1 1h2v7l2 4h3l1 3 3 1 2-3h6l-1-1-4-7-3-3 3-1 4 5v2l5 5-2 1-1 9 1 2 1-3v-5l4-2 4 2-1-3h3l1 2-1 3h-2v2l3-2 2-4h5l1 3-2 1-1 3-3-1 1 5 1 10h2l-1-7-1-5 2-1 1 4 3 3 4 1v3h-3l1 8 3 1 4-4-5 2-1-5 7-2 1 5 1-3h3l2 3-1 4h-3v-2h-3v2h2v3l-5-1 1 2 3 1 2 5-3 3 4-1 1-3 5 2v2l3-1h3l4 2 1-3h2v5h-2v7h2l-1-3 2-4 5 2v4h-2-1l-1 3 1 3 2 1-1-5h4v-2h4v3h-2v3h2l1-4 5-1v-2l-4-1 4-4 5 1 2 1-1 6h2v7l4 4 2-4 2 1-1 4 1 5h3v-3h3v6l-1 2 4 2-2 4-5-1v2h2l1 2h4l1-7 6 1-2 7 3-3v-4l-3-3v-2h3l2 3h2l3 4v2l5 1v2l-6-1-1-3-2 1 1 3h-2l1 2 5-1-2 5h2l1-3 3-2h3v4h4v-2l7-2-1 3h-3v3h3v3l-2 1 4 4 1 2h3v4h2l1-4 2 1v3l2-1v5l1 3 1-3 6 2v4l3 1v3l1-2h4l1 2h2v2l2 1 1-2 4 6h4 3v2l-3 2-1 2h-3v4l-4 2v-2l-4-1-3-2v-2l-4-2-1-3-6-2-1-2 1-2-4 1-1-2h3v-2h-3v-3h-3l1 3h-3l-5-4v-2l-6 2v-3l-4 1 2-4-3 1-3-1-1 3-2-1v-6h-3v-2l-5 1-6-5h-2v-2h3v-3h-6v-2l-3-1v2h-3v2l-3-1 1-4h-3v-2h2v-2h-2l-2-4-1 5-3 1-3 3v-5l-11 1-3-5v-2l-3 1v-3l1-2-4 1v-5l-4-1h-6l-3 1v-2h-5l1-3 2-2-2-3h-7l-1-2-4-2v-3l-9 1 2-1-1-6h-3l1 3-3-1-1-2h-6l-3 1-2-6v-3h-4v-3l-5 3-1 4 2 4-3 1h-7l-5-7-4-4-6-8v-2l-4-2-1-5v-1l-4-1-8-6-4-4-6-5v-2l2-1-6-2-4-5v-2h2v-3h-4v-2l-3-1v-2h4l1-4 4-7h3v-2h2l-1 5h-3v5l3-3 3 2v4h2l1-4h-2l-2-4 1-3h3v-3l2-1v-4z" fill="#D3D3D0"/>
<path transform="translate(911,238)" d="m0 0 5 1 1 4-5-1-1 4v2h3v-2l5-1v4l3-2h5v3h2l1 4 4 5 8 12v2l-5-1-3 1-1 3-4-1-3-3v6h-2v2h-2v-2l-3 1-2 2-2-1v-2l-3-1v7h-4l-1 2h-3v5h-3v-3h-2l-1 3-4-2-2 2 2 2h-5v2l5 1-3 5v6l-9-2-4 1v5l-2 3-6 1v-2h-3v2l-3-1v-3l-6-2 2 3v7h-3l1 4h-2v-2h-5v2l-5 4v-2l-4 1h-7l-1 6h-2v8l-16 1-3 1-1 5h-2v2l-4-1v2l-5 1h-6l-2-1 1 4-2 1-2-4 2 7-2 3-4-1-1 3-8-2-4 2h-3l2 4-1 3-9 2v2h-2v-2l-5-1v2l-7 1-1 2-3-1 3 6h-4l-2 4h-4v-2h-3v11l-7-1-1 4-9 1-2 1-3-1-1 9-3 1-7-1-4-1 1 3-1 3-4-1 1 3h-3l-6-1 2 4-13 6h-5v-5l2-1 1-2h2v-5h-2v-3h2l2 5h2v-3h2v-3h2l1 2 2-3v-4l3-1 1 4 1-3h2l1 4v-5l3-1v-2l-3 1 1-4h2l2 2h2l-1-8 1-3h2v4l2-1 2-4 4 2 1 4h-3-2v3l7-2h2l-1-4h3v-2l-6-1-2-6 3 1 2 3h2v-3l-3-1v-5l2-1v4l2 1 1-3 1 2-1 6 2 3 3 1v-2h-3l-1-5h2v3l4-2v-5l5-1 3-1 2-8 5-1h4v-2h-2l2-5 2 1v9l-4 1-2 3 1 1 1-2 5-2 2 1v-2h-2l1-3h2v2h2v-3l-4-2 1-4h3l1-4 5-4 3 3 1-3 4-4h5l-5 5h-2v2h3v-2h3l3-6h5l-4-1v-5l6 2 1 2v-4l-3-1 2-5 5 3 2 4 3-1-1-7-5 2-3-4v-2h-2v-2l6-1 2 4 2-2 3 2v-3l6 4v-2l-2-2 3-4h2l-1-3h3l1 1v-3l4 1 1 1 3-4h2v4l3 5v3h2l-1-5 2-2-5-1 1-5h-2l1-3h4 2v-2l5-2 1 1 4-1 1 2 3-1 1-4h4l1 5h2l-1-6-4-1-5 2v-2h-2l1-3h5l2-4 5 1-1 4-2-2-1 2 6 1v-4h2v-5l-2-1 1-5 2 1 3 6-1 4 4 2h3l-5-3v-4l-1-4h-2l2-7-4-2v-3l1 2 4 1 2 1v2h-2v4l6 3-1-4 4-1 1-5-3-1v-6l3-1v3l4-3 2-5 2 1 2 6-5 1 1 3-2 4 1-1 2-4h2v3l3 1 1 1v-3l-3 1 1-4 5 1v-2h-4l2-4 5-2v3l2-1v-3h2l2 5 4-4-4-1-2-1v-2h2v-3h-3v3h-2v-8h2l2 3 6 1v-2l-5 1v-5h3l2 1 2-2-1 5 5-5-1-5 3 1 1 2 1-3h3l1-4h2l1-4z" fill="#D3D3D0"/>
<path transform="translate(337,560)" d="m0 0h8l4 5-1 5-1 2-3-1v-2h-3l1 4-3 1-3 3 3 3-1 3-6-4-1 4-2-1 2-5v-3-2h-2l1 6h-3v2h-3l-1-3-2 6h-4v2h3v2h2v-3h2l1-3 3 1v2l5 2-1 2-5-1-2-2v2h-2l-1 6h2v2h-3l-1-3h-4v-3h-2v3l-3 1v2l4 1v5l-4-1-2 3h-2l1-4 4-1-4-2v2l-2 1-1 6h-2l-1-2h-3l1-3h2l-2-3-2 4h-2v3h-2l-1 6h-3l-1 2-5-1 1 4h-3l-1-5-1 2h-3l-1 2 3-1 1 7h-2v-2h-2v-2h-2l-1 2h2v5l-3-1-2-5-3-2-1-3-1 2h-3v2l6 1 2 3v5l-5-1-2-4h-3l-1 4-3-3-1 3-3 1-3 3-2-2-3 3h-4v2l3 2-2 4-7-1-2 4h2l1-2 3 1v3h2l1-3 4 1 3 4-5 5h-3l1-3 3-3h-2l-3 4h-3l-1 3-3-1v-3l-1 2h-2v-3h-2l1 4h-2l1 3-5 3h-2v-2l-3 3h-2l1 4-2 1-1-4-2 1v4h-3l-1 3h-6l-1-2v-2h-3v6h-2v-2h-3v2l-3 3h3l-2 7h2v3h-2v-2h-4l-4 2-1-4h-2v6h-2l-1 5-4 1v-2h3l-4-5-1-5h2v-3l-3 1-2-3v8l-8 1-2-5-1 3-4 2v-3h-2l1 4-4 4-3 2 2 6 2 1-2 4h-2l-3-8-2 5-2-1 1-4h-2v-6l-5 2h2v3h-2v-2l-3-1v-6l3-1h-3l-1 3-5 1v-2l-3-1 1-3h2l1-6 12-20 4 2 4-1 1-4 3-1v-2h2v2l4-2 1-4h2v3l8-1 1-1h5l1-4 4-1 1-3v3l3-1 1 4h2v-4h2l-1-5 6 1 1-4 4-2 1 3h4l1-4 9-3h5l1-3h4v-2l5-4 5 1 1-4 1 3 5-2h2 3l-2-3v-3h2l1 4h2v-4l8 1h3l1-3h3v-2l4-1 1-3 5-1v2l3-3h3v2h-2l-1 4h4v-2h2l-1-6 7-4 3-1 5-1 2-4h2v3h6l3-3-2-1 3-2 2 1 1-3 4-1 1-2h-2l1-2h4v2l4-3h2l2-2 3-1 1-6 5-1z" fill="#D5D5D2"/>
<path transform="translate(501,431)" d="m0 0h22l15 4 15 7 12 9 11 12 8 16 3 8 3 17-1 10-3 17-8 16-11 13-9 8-10 6-8 4-13 4-7 1h-14l-12-3-13-5-11-7-8-6-8-8-4-7-6-10-5-13-1-6v-21l4-16 5-12 10-13 9-9 14-9 10-4zm10 12-14 2-14 5-16 12-9 13-5 10-3 12v19l3 12 8 15 12 13 10 7 13 5 10 2h12l13-2 12-5 9-6 10-9 6-8 7-15 2-12v-14l-3-12-4-10-10-14-7-6-13-8-10-4z" fill="#FAFAF9"/>
<path transform="translate(738,598)" d="m0 0 5 1 6 2 1-2 4 2 1 3 2-1 4 5 1 4 5-1v3h3l1-2v2l4-1 5 3 1 3h3l2 2h5v3h5l-1 4 3-1 10 2 3 3 4 1-1-4 7 1v2l2 1 1 7 16 1 1 10 7-1 1-2h2l-1 5h2v4l7-4v3l4 2v2h2v-2h8v2l-2 1 1 3 3-1 1 3 6-2 3 1-2 4h-2l-2 4-4-1v3h-3v2h-2l3-6h-2v2l-4 1v2h2v2l-8-2v-2h4v-2h-3l1-3-5 5-4-3-1 3-2-2v-4l5-3-1-1-2 2-2-1-3 4h-2v2h-3l-1-4-1-3v-4l-3 3-2 1-6-5v-3l-3 2-1-3-4-2-1-3-4-1-6-4-1-3v3 2l-6 1 1 4h-4l1-5h-2l-4 1-1-4 6-1-3-3 1-1-1-7-1 2 2 1v3l-4-1v2h-2v-3h-2l-1 3h-3l-3 1 1-5 6-1-2-3v3h-3v-4l-3 7-2-1v-4l-3-1-2-5-1 1-5-1-1 2h-2l-4-5h-4v3l-6-1v-3h3v-3h3v-2h-2l-2-3-1 1 2 1-1 3-5 1-2-2-3-2v-3l-5-1 2-4v-3h-3-4l2-5z" fill="#D4D4D1"/>
<path transform="translate(337,560)" d="m0 0h8l4 5-1 5-1 2-3-1v-2h-3l1 4-3 1-3 3 3 3-1 3-6-4-1 4-2-1 2-5v-3-2h-2l1 6h-3v2h-3l-1-3-2 6h-4v2h3v2h2v-3h2l1-3 3 1v2l5 2-1 2-5-1-2-2v2h-2l-1 6h2v2h-3l-1-3h-4v-3h-2v3l-3 1v2l4 1v5l-4-1-2 3h-2l1-4 4-1-4-2v2l-2 1-1 6h-2l-1-2h-3l1-3h2l-2-3-2 4h-2v3h-2l-1 6h-3l-1 2-5-1 1 4h-3l-1-5-1 2h-3l-1 2 3-1 1 7h-2v-2h-2v-2h-2l-1 2h2v5l-3-1-2-5-3-2 1-7 4-1-1-3-3-2 3-2 5 1v-2h2l-1-6 7-4 3-1 5-1 2-4h2v3h6l3-3-2-1 3-2 2 1 1-3 4-1 1-2h-2l1-2h4v2l4-3h2l2-2 3-1 1-6 5-1z" fill="#D3D3D1"/>
<path transform="translate(904,670)" d="m0 0h2l1 5-1 2 1 2h3v4l3 1-1 2 3-2-1-3h2l1 4 6-1 1 3 5 1-1 5h7v3l5-1 1 4 8-1 1-4h2l-1 4 3 1 1 1h2l2 2h3l1-3 1 2h4l1 3-1 4-3 2h-3v-2h-2l-2 5h-2l1-5-4-1v2h-2v-3l-3 2 5 5-1 3h-2l-1 3-3-2-4 1 2-5 6 2-4-5-5 4h-2l2-6h4l-1-2-6 3-1 6-3 1-1 2h-2v-3h2l-1-4 2-1 1-3h-3l-1 4-2 3-4-1 2-4-1-2h3v-5h-2v4l-6-1-3-3v-3l-4-1-2-6-3-1-1 2h4v3l-4-1v1l-1 6 1 3h-3v-5h-3v-3l2-1-3-1v-2h-2l-1 4-3-3-2-1 1-2-2-1h4l-1-3 5-1-3-1v-2l2-1-3-2 2-3 2 1-1 2 2-1-1-4h2z" fill="#D2D2D0"/>
<path transform="translate(263,377)" d="m0 0 4 1-2 4h2l1-3 3-2h3v4h4v-2l7-2-1 3h-3v3h3v3l-2 1 4 4 1 2h3v4h2l1-4 2 1v3l2-1v5l1 3 1-3 6 2v4l3 1v3l1-2h4l1 2h2v2l2 1 1-2 4 6h4 3v2l-3 2-1 2h-3v4l-4 2v-2l-4-1-3-2v-2l-4-2-1-3-6-2-1-2 1-2-4 1-1-2h3v-2h-3v-3h-3l1 3h-3l-5-4v-2l-6 2v-3l-4 1 2-4-3 1-3-1-1 3-2-1v-6h-3v-2l-5 1-6-5h-2v-2h3l-1-4 2-3 5 2z" fill="#CFCFCC"/>
<path transform="translate(474,854)" d="m0 0 2 1v5l2 1 1-4 5 5v2h2l-1 4-1 3 1 4 2 1-1 1v5l1 3v7l-3-1 1 6h-2l1 5-1 4 1 11 3 1-3 1-1 8 3 1v2h-2v2h-3l4 6h3l-4 5-1 6 3 1-3 1 4 6h-4l-1 6 2 1-4 3h-3v-6h-2l1 4-4-1 1-6h7v-3l-4 1v-11l2-1-4 1v-3l3-2-3-2 1-2v-4l-3 1 1-6h4l-4-5 2-3h2l-2-4v2h-2l-2-2v-3l6-1 1 1 1-4-4 2-2-1v2h-2v-6l-2-1 2-2 5 5-1-6 1-1-1-6-4-1-1-5 4-1 1 1 1-2-3-1 2-1v-3h-3v-4l-6-3 1-2 6 1 3-1v2l2-2-1-4 1-1-7-2v-3l2-1-1-4z" fill="#CFCFCC"/>
<path transform="translate(579,423)" d="m0 0 4 2 8 7 8 9 4 6 10 19 5 14 4 17v17l-1 7-1 8-3 12-6 13-5 10-6 7-3 1 2-6 8-14 4-8 6-23h2l-1-2-2-30-4-13-4-11-8-15-7-10-9-10z" fill="#F3F3F2"/>
<path transform="translate(429,440)" d="m0 0 1 2-7 11-4 10-4 14-2 6-1 8v39l-4 1-2-11v-24l3-16 4-14 6-11 7-12z" fill="#F8F8F7"/>
<path transform="translate(350,902)" d="m0 0 7 1 7 8 1 7-8 5-7-1-5-4-2-4 1-6 4-5z" fill="#CCCCC9"/>
<path transform="translate(157,779)" d="m0 0h7l4 2 2 3v8l-6 5-8 1-6-5-1-5 3-6z" fill="#CCCCC9"/>
<path transform="translate(483,400)" d="m0 0 4 1v4l-11 4-16 8-9 6-6 5-8 7-5 4h-2l2-4 9-10 9-8 15-10 12-5z" fill="#F8F8F7"/>
<path transform="translate(950,694)" d="m0 0h2l-1 4 3 1 1 1h2l2 2h3l1-3 1 2h4l1 3-1 4-3 2h-3v-2h-2l-2 5h-2l1-5-4-1v2h-2v-3l-3 2 5 5-1 3h-2l-1 3-3-2-4 1 2-5 6 2-4-5-5 4h-2l2-6h4l-1-2-5 1 3-7 3-2h4z" fill="#D0D0CD"/>
<path transform="translate(177,658)" d="m0 0 2 2h-2l1 6-1 5 2-1v-6l1-3 6-1-1 3h-2v2h4v-2h3v2l-2 1v5l2 2v4h2v3h-2v-2h-4l-4 2-1-4h-2v6h-2l-1 5-4 1v-2h3l-4-5-1-5h2v-6h2l-1-3h2l-1-4z" fill="#FDFDFC"/>
<path transform="translate(383,770)" d="m0 0 7 1 2 2v9l-5 6-6 3-7-1-1-1v-6l7-10z" fill="#CCCCC9"/>
<path transform="translate(473,929)" d="m0 0 7 1 5 8h3l-4 5-1 6 3 1-3 1 4 6h-4l-1 6 2 1-4 3h-3v-6h-2l1 4-4-1 1-6h7v-3l-4 1v-11l2-1-4 1v-3l3-2-3-2 1-2v-4l-3 1z" fill="#D6D6D3"/>
<path transform="translate(566,123)" d="m0 0 5 1 4 6v7l-7 5-5-1-5-5 1-5 4-6z" fill="#CCCCC9"/>
<path transform="translate(589,579)" d="m0 0v3l-4 6-14 11-12 6-8 1 1-5 16-8 14-9z" fill="#F8F8F7"/>
<path transform="translate(679,562)" d="m0 0h2l5 5 9 6v2l4-1v2h3l-1 5-3 1-1-3 1-1-2-1v5l-3 1-1 2h-2l1-5-4 2v2l-3 1v-6-2h-2v-3l-3-2z" fill="#D1D1CF"/>
<path transform="translate(579,423)" d="m0 0 4 2 8 7 8 9 4 6 10 19 4 10v4h-2l-1 2-5-15-9-17-7-10-9-10z" fill="#F2F2F1"/>
<path transform="translate(211,426)" d="m0 0 9 5 6 5 11 14 6 5-2 1 1 4-6-3-12-13-3-5-5-5v-2l-4-1-2-1z" fill="#EEEEED"/>
<path transform="translate(680,719)" d="m0 0 5 1 2 2 1 6 1-1h7l2 2v7l-2 2-5-1-5-4v-2l-4-1-4-4v-5z" fill="#CCCCC9"/>
<path transform="translate(531,246)" d="m0 0 5 1 3 4v6l-5 5-6-1-2-3 2-9z" fill="#CCCCC9"/>
<path transform="translate(872,760)" d="m0 0 4 1 5 5 1 5-3 3-6 1-5-5 1-7z" fill="#CCCCC9"/>
<path transform="translate(615,480)" d="m0 0h3l4 17v17l-4 3-2-28-2-7z" fill="#F7F7F6"/>
<path transform="translate(53,677)" d="m0 0 1 3h4l1-3h3l3 1-2 4 3-2 2 4-4 2h-3l-1 3-4 1v-2h-2v2l-5 1-1-3h2l1-7h2z" fill="#CECECB"/>
<path transform="translate(932,533)" d="m0 0 5 3 3 7v4l-2 1h-7l-4-6v-5z" fill="#F8F8F7"/>
<path transform="translate(540,605)" d="m0 0 5 1-3 5-10 3h-17v-3l16-3z" fill="#F7F7F6"/>
<path transform="translate(212,762)" d="m0 0 6 1 4 5-1 4-3 3-6-1-4-3v-5z" fill="#CCCCC9"/>
<path transform="translate(762,44)" d="m0 0 1 2-4 8-7 10h-5l-1-5 8-10 5-3z" fill="#FBFBFA"/>
<path transform="translate(477,948)" d="m0 0 1 2 7-1 1 2h-3l4 6h-4l-1 6 2 1-4 3h-3v-6h-2l1 4-4-1 1-6h7v-3l-4 1v-7z" fill="#D2D2CF"/>
<path transform="translate(173,672)" d="m0 0h4v3h-3l3 3 2-4h11v3h2v3h-2v-2h-4l-4 2-1-4h-2v6h-2l-1 5-4 1v-2h3l-4-5-1-5h2z" fill="#CFCFCC"/>
<path transform="translate(482,967)" d="m0 0 1 2-1 7 3 1v8 3l-3-2v-2l-2 1-2 4-2-4v-5l3-4h2l-1-2h-2v2h-2v-3l-5-1v-3l4 1 1-2h2v3h2v-3z" fill="#D7D7D5"/>
<path transform="translate(416,700)" d="m0 0 5 1 4 4 1 6-3 3-5-1-4-4v-8z" fill="#CCCCC9"/>
<path transform="translate(410,533)" d="m0 0 3 2 2 6 11 20 5 8-1 2-10-11-7-13-4-13z" fill="#F2F2F1"/>
<path transform="translate(241,353)" d="m0 0 1 2 2 1h-2v2l7-3v4l2 1-1 3 4 4 1-3 2 4 4 2-3 6h-3v-3h2l1-4-6-1 1 4-4 4-3-1v-2h-2v-2h5v-4l-2-1 1-8h-3v3l-4 1-1-8z" fill="#FDFDFC"/>
<path transform="translate(180,278)" d="m0 0h4l-1 4-3 1h3l2 8h-2l-3-5v2 4h2v2h-5l1 4h-2l-1 3h-2v-6l5-4-4 1-1-4 3-1-1-5 1-2z" fill="#CCCCC9"/>
<path transform="translate(138,278)" d="m0 0h5l1 3 4 2 2 5 2 1-1 2-3-1-1 3v-3l-2 1-2 3-5-2 1-3-4 1-2-5 1-6h1v6l6 3v3h2l1-6-3-1v-4h-3z" fill="#FAFAF9"/>
<path transform="translate(619,318)" d="m0 0 4 1h-2l1 5-13 3-12 1 3-4 14-4z" fill="#CCCCC9"/>
<path transform="translate(668,201)" d="m0 0 4 1 2 1-1 5-6 5-5-1-1-5z" fill="#CCCCC9"/>
<path transform="translate(200,757)" d="m0 0 5 1 1 5-5 6-4 1-2-1 1-8z" fill="#CCCCC9"/>
<path transform="translate(200,647)" d="m0 0 1 4h2v2l5 1v-6h2l1 6-5 4v2l-3-1-1-4-3-1h-3l-2 5-2-1v-3h-2l1-4-1-2h3v2l5 1v-3h2z" fill="#FCFCFB"/>
<path transform="translate(211,426)" d="m0 0 9 5 6 5 2 4v4l-3-1v-2l-4-2-5-5v-2l-4-1-2-1z" fill="#CFCFCC"/>
<path transform="translate(612,108)" d="m0 0h7l2 2-1 5-2 2-5 1-4-2 1-6z" fill="#CCCCC9"/>
<path transform="translate(822,299)" d="m0 0 5 5h5l-1-3h2v2l6-3v2h3l1 6h-2l-1-5-4 1-1 3-4 3v-4l-6 3-1-2-3 1v2h-2l1-5 2-1z" fill="#FDFDFC"/>
<path transform="translate(72,453)" d="m0 0h5l5 6v4l-4 1-6-3-1-6z" fill="#F9F9F8"/>
<path transform="translate(171,295)" d="m0 0h2v6l3-3 2 1-1 3-2 1v2l4 2-4 1-5-5 2 7-1 3h-2l-3-15 2-1v2h2z" fill="#FDFDFC"/>
<path transform="translate(679,562)" d="m0 0h2l5 5 4 2-2 4-4 4h-2v-3l-3-2z" fill="#D4D4D1"/>
<path transform="translate(230,272)" d="m0 0 4 1 2 2v5l-3 2h-6l-2-4 3-5z" fill="#CCCCC9"/>
<path transform="translate(138,276)" d="m0 0h5l-1 3-4-1v2h3v4l4 1-1 4-1 2h-2l-2-3-3-1-1-2v-6z" fill="#D0D0CD"/>
<path transform="translate(287,303)" d="m0 0h6l2 2-1 7-5 1-4-4 1-5z" fill="#CCCCC9"/>
<path transform="translate(733,217)" d="m0 0h6l3 2-1 7-6 1-3-5z" fill="#CCCCC9"/>
<path transform="translate(726,790)" d="m0 0h5l3 4-1 5-2 2-5-1-1-1v-7z" fill="#CCCCC9"/>
<path transform="translate(159,682)" d="m0 0 4 1-1 3-2-1-2 5-2 2 3 3-2 6h-2l-1 5-4-2 2-2v-3l2-4-2-1 3-6h2v-3h2z" fill="#CCCCC9"/>
<path transform="translate(570,854)" d="m0 0 5 1 2 3-1 5-2 2-4-1-2-3 1-6z" fill="#F9F9F8"/>
<path transform="translate(916,245)" d="m0 0h3l1 6-4 4h-3l-5-5v-4h3v2h3v-2z" fill="#F8F8F7"/>
<path transform="translate(834,653)" d="m0 0 1 2 5-1 2-1v4h4v2l-7 2-1 3-4-1-1-7z" fill="#DADAD7"/>
<path transform="translate(241,639)" d="m0 0 4 1 3 4-5 5h-3l1-3 3-3h-2l-3 4h-3l-1 3-3-1 1-5h4l1-2h2z" fill="#CCCCC9"/>
<path transform="translate(944,705)" d="m0 0 1 3-4 1-2 5 8-5v3l3 1v2l-6-1-3 4-5-2 1-3-2-1h2l1-4z" fill="#FDFDFC"/>
<path transform="translate(605,80)" d="m0 0 3 1 2 4-3 5-6-1-1-5 3-3z" fill="#CCCCC9"/>
<path transform="translate(499,715)" d="m0 0 3 1-1 14-2 3-1 2-1-1v-6h2l-1-2-3 2-1-2 1-3h2v-6h2z" fill="#D0D0CD"/>
<path transform="translate(184,660)" d="m0 0 2 1-1 2h-2v2h4v-2h3v2l-2 1-2 5v2h-5l2-6h-4l1-6z" fill="#EAEAE9"/>
<path transform="translate(852,675)" d="m0 0 4 2 1 6-2 2-5-1-2-2 1-5z" fill="#CCCCC9"/>
<path transform="translate(165,664)" d="m0 0h2v15l-7-1 1-4-1-3h2v-2h2z" fill="#E4E4E2"/>
<path transform="translate(670,259)" d="m0 0 4 1 1 5-4 6h-2l-2-8 1-3z" fill="#CCCCC9"/>
<path transform="translate(581,165)" d="m0 0 5 2 1 6-1 2-6-1-1-1v-6z" fill="#CCCCC9"/>
<path transform="translate(271,380)" d="m0 0 3 1-2 6h3v-5l5 1v2h-3v2h2v5l-4-1-2-2-4-1-1 2-1-3h3z" fill="#FDFDFC"/>
<path transform="translate(820,710)" d="m0 0 5 1 2 2-1 6h-6l-1-7z" fill="#CCCCC9"/>
<path transform="translate(251,350)" d="m0 0h3v3h-4l1 4 3 1-2 6h2l1-4 1 3-2 4-4-2-1-4v-2l-1-8z" fill="#CCCCC9"/>
<path transform="translate(188,316)" d="m0 0 2 2v3 11l-5 1 1-3h2l-3-5h-3l-1-3h3l3 1v-3h-2v-2h3z" fill="#FDFDFC"/>
<path transform="translate(162,663)" d="m0 0 3 1-1 5h-2v2l-1 1 2 2-3 4 3 1-4 1-3-7 1-2h2v-3h2z" fill="#CCCCC9"/>
<path transform="translate(913,349)" d="m0 0 5 1 1 4-5 4-4-1 1-6z" fill="#F8F8F7"/>
<path transform="translate(821,140)" d="m0 0 5 2v5h-8v2l-4-1 1-2h3l1-5z" fill="#CCCCC9"/>
<path transform="translate(158,260)" d="m0 0h2l1 3 2-3 4 2-6 5-5-3v2l-4-2-4 1 1-3 5-1v2z" fill="#CCCCC9"/>
<path transform="translate(648,355)" d="m0 0 5 1 2 4-3 3-5-1-1-1v-5z" fill="#CCCCC9"/>
<path transform="translate(785,122)" d="m0 0 6 1 1 1v5l-1 1h-5l-2-2v-5z" fill="#CCCCC9"/>
<path transform="translate(480,842)" d="m0 0h2l2 9-1 3-4 2-4-6 1-3 5 4-2-5h2z" fill="#CFCFCC"/>
<path transform="translate(950,704)" d="m0 0 2 3-1 2h2v-2h5l-2 9-4-1-2-6-3-1 1-2 2 1z" fill="#F3F3F2"/>
<path transform="translate(780,332)" d="m0 0 5 3 2 4h3v3l-5 1v-2h-3l-1-3-3-1z" fill="#CCCCC9"/>
<path transform="translate(226,628)" d="m0 0 3 1v3l3-3h3v3l-4 2-1 2-5-1-2 6-2-4 2-6 3 1z" fill="#FDFDFC"/>
<path transform="translate(285,333)" d="m0 0h8l1 4-5 3-4-2z" fill="#CCCCC9"/>
<path transform="translate(482,967)" d="m0 0 1 2-1 6-4-1v2h-2v-3l-5-1v-3l4 1 1-2h2v3h2v-3z" fill="#D1D1CE"/>
<path transform="translate(192,322)" d="m0 0 2 2v4l3-1 2 3 2-2v3l2 1-4 2-4-1-5-5h2l-1-4z" fill="#FDFDFC"/>
<path transform="translate(134,279)" d="m0 0h1v6l6 3v3l5-3 1 2-2 1-2 3-5-2 1-3-4 1-2-5z" fill="#FDFDFC"/>
<path transform="translate(895,687)" d="m0 0 5 1v2h2l-1 4-2-1-1 4-3-3-2-1 1-2-2-1h4z" fill="#CDCDCA"/>
<path transform="translate(256,364)" d="m0 0h3l2 3h2l3 4v2l5 1v2l-6-1-1-3-4 1-1-4-3-3z" fill="#CCCCC9"/>
<path transform="translate(196,675)" d="m0 0 3 1 1 7 4-1 1 3-7-1-4-5v-3z" fill="#CECECB"/>
<path transform="translate(180,674)" d="m0 0h10v3h2v3h-2v-2h-4l-4 2-1-4-2-1z" fill="#CCCCC9"/>
<path transform="translate(211,653)" d="m0 0 1 3h3l1 4-2 1-1-4-2 1v4l-5-2-1-3z" fill="#CDCDCA"/>
<path transform="translate(202,646)" d="m0 0 4 1 2 1v6l-4 1-1-4h-2z" fill="#CCCCC9"/>
<path transform="translate(890,234)" d="m0 0 4 1 3-1 2 1-1 4-1 2h-2v-3h-2v2l-5-1z" fill="#CDCDCA"/>
<path transform="translate(284,79)" d="m0 0h1v7l-6 1h-5v-3l4-1 3-2z" fill="#CCCCC9"/>
<path transform="translate(196,670)" d="m0 0 6 1 3 5v2h-3l-1-4-3 1-1-2-4 2 1-4z" fill="#CCCCC9"/>
<path transform="translate(207,667)" d="m0 0h3v2l6-2 3 5-6-1-7 2-2-2 3-1z" fill="#CDCDCA"/>
<path transform="translate(167,315)" d="m0 0h2l1 3 3-1v2l3 1-3 2v2l-1 4-1-3h-2l-1-6-2-2z" fill="#FDFDFC"/>
<path transform="translate(293,598)" d="m0 0 2 2-3 7-4-1v3l-4-1 2-1v-4l5 1v-5z" fill="#FDFDFC"/>
<path transform="translate(873,560)" d="m0 0 4 1 1 1v6l-5-1-1-1v-5z" fill="#FAFAF9"/>
<path transform="translate(84,462)" d="m0 0 5 2v4l-4 1-4-2 2-4z" fill="#F2F2F0"/>
<path transform="translate(223,345)" d="m0 0h2v3h3v-3h3l-2 5-5 5-3-3 1-2h3l-2-1z" fill="#FDFDFC"/>
<path transform="translate(193,322)" d="m0 0h3v2h5l1 4h-2l-1 3-3-3h-2z" fill="#CECECB"/>
<path transform="translate(669,234)" d="m0 0 4 1 1 6-5 1-1-1v-6z" fill="#CCCCC9"/>
<path transform="translate(307,830)" d="m0 0 3 1 1 8h-4l-2-4z" fill="#CCCCC9"/>
<path transform="translate(429,440)" d="m0 0 1 2-7 11-2 5h-2l1-5 7-11z" fill="#F7F7F6"/>
<path transform="translate(799,740)" d="m0 0 4 1-1 5-7-1 1-4z" fill="#CCCCC9"/>
<path transform="translate(918,713)" d="m0 0h3l-2 9-2 7h-3l-1-4 4-4z" fill="#CCCCC9"/>
<path transform="translate(106,252)" d="m0 0h2l-1 4-1 2h2v3l-5 4-1-4 2-1v-4z" fill="#CCCCC9"/>
<path transform="translate(906,684)" d="m0 0h2l-1 4 2 1h-3v2h-2v3h-2v-4l-3 1 1-3 4-3v3h2z" fill="#FBFBFA"/>
<path transform="translate(923,380)" d="m0 0 5 1-1 5h-6l1-5z" fill="#FDFDFC"/>
<path transform="translate(467,936)" d="m0 0 6 1v4l-3 3-1 2h-2v-3h2l-2-4z" fill="#CCCCC9"/>
<path transform="translate(479,834)" d="m0 0h2v3h3v-3h2l-1 9-3-1v-2h-2z" fill="#CCCCC9"/>
<path transform="translate(909,690)" d="m0 0 4 1 1 7-2 1-4-1-3-5 4 2 3 1v-3h-4z" fill="#FDFDFC"/>
<path transform="translate(323,576)" d="m0 0 1 4 2 1-2 3h-2v3h-2v-2h-3v-2l4-2 1-4z" fill="#FDFDFC"/>
<path transform="translate(183,311)" d="m0 0h2v6l-6 1-1-5z" fill="#CDCDCA"/>
<path transform="translate(911,238)" d="m0 0 5 1 1 4-5-1-2 4h-3v-3h2l1-4z" fill="#CCCCC9"/>
<path transform="translate(774,624)" d="m0 0 4 1v4 2l-10-2 2-4 5 2z" fill="#FDFDFC"/>
<path transform="translate(183,397)" d="m0 0 4 4 7 9-1 2-5-5-4-3z" fill="#CCCCC9"/>
<path transform="translate(207,324)" d="m0 0h3l2 5-4 1-1-2-3 3h-3v-2z" fill="#CCCCC9"/>
<path transform="translate(111,273)" d="m0 0 4 2 3 3h-3v2l-4 1v-5h-2v-2z" fill="#FDFDFC"/>
<path transform="translate(877,259)" d="m0 0 5 2 1 4h-3l-5-1 1-4z" fill="#CCCCC9"/>
<path transform="translate(172,708)" d="m0 0 4 1 1 4-1 4h-3v-6h-3v-2z" fill="#CCCCC9"/>
<path transform="translate(761,631)" d="m0 0 6 1-1 4h-6l-1-4z" fill="#CCCCC9"/>
<path transform="translate(820,297)" d="m0 0h2l1 7-3 1-1-2h-3l1-4z" fill="#CCCCC9"/>
<path transform="translate(849,287)" d="m0 0h3l3 6h-2l2 3h3l1 3-5-1-3-2-1-5z" fill="#FDFDFC"/>
<path transform="translate(119,254)" d="m0 0h5l1 6v2h-2l-2-3-3-1z" fill="#CECECC"/>
<path transform="translate(807,710)" d="m0 0 4 2 1 7h-3l-3-5z" fill="#CCCCC9"/>
<path transform="translate(904,694)" d="m0 0 4 2-1 6 1 3h-3v-5h-3v-3l2-1z" fill="#CCCCC9"/>
<path transform="translate(729,605)" d="m0 0h2l3 10-2 3h-2l1-5-3-2v-5z" fill="#CCCCC9"/>
<path transform="translate(299,604)" d="m0 0 4 1-1 5-2-3-3 6-3-1 2-1v-6z" fill="#CCCCC9"/>
<path transform="translate(866,249)" d="m0 0h2v3h-2v4h-6l-1-4h6z" fill="#CCCCC9"/>
<path transform="translate(662,684)" d="m0 0 3 1 1 4-2 2h-4v-5z" fill="#CCCCC9"/>
<path transform="translate(238,650)" d="m0 0 6 2v2l2 1v5l-5-2 2-4-6-2z" fill="#CCCCC9"/>
<path transform="translate(260,624)" d="m0 0 3 1v2h-6l-2 3-4 1 2-6z" fill="#CCCCC9"/>
<path transform="translate(816,175)" d="m0 0 4 1-1 8h-2v2l-2-1z" fill="#CCCCC9"/>
<path transform="translate(338,807)" d="m0 0h5l1 4-1 1h-5l-1-4z" fill="#CCCCC9"/>
<path transform="translate(957,715)" d="m0 0 3 1-1 3h-2v2l-5-1v2l-3-1 4-4 4 1z" fill="#CCCCC9"/>
<path transform="translate(909,698)" d="m0 0h5l2 2-1 5-2 1v-5h-2v2h-2z" fill="#CCCCC9"/>
<path transform="translate(244,621)" d="m0 0h3l1 4-4 4-4-1z" fill="#CCCCC9"/>
<path transform="translate(741,603)" d="m0 0 1 2 2 1-3 4 1 4-5-1 4-7-4 2 2-4z" fill="#FDFDFC"/>
<path transform="translate(263,364)" d="m0 0h2v4h4l1 5h-4l-4-7z" fill="#FDFDFC"/>
<path transform="translate(264,362)" d="m0 0 4 1 1 2h2l-1 3h-5v-4h-2v2h-2v-3z" fill="#CCCCC9"/>
<path transform="translate(556,230)" d="m0 0h5l1 4-2 2-4-1z" fill="#CCCCC9"/>
<path transform="translate(184,683)" d="m0 0h4l-2 4-3 3-4-2v-2l4-1z" fill="#CCCCC9"/>
<path transform="translate(167,667)" d="m0 0 1 2h3v-2l3 1v2h-2v3l-3 1-3-3z" fill="#CDCDCA"/>
<path transform="translate(842,663)" d="m0 0 3 1 1 2 3 1-1 2h-2v2h-3l-1-4z" fill="#CCCCC9"/>
<path transform="translate(617,290)" d="m0 0 4 1-1 5h-5l1-5z" fill="#CCCCC9"/>
<path transform="translate(120,262)" d="m0 0h3v7l-3 1v-4h-3l-1-3z" fill="#CCCCC9"/>
<path transform="translate(916,245)" d="m0 0h3l-1 5-2 2-2-2h-3v-2h3v-2z" fill="#CDCDCA"/>
<path transform="translate(120,239)" d="m0 0h3l1 6-2 1-4-1z" fill="#CCCCC9"/>
<path transform="translate(904,235)" d="m0 0 3 1v2l2 1-2 1-2 4-5-4 3-1 2 1v-2h-2z" fill="#CCCCC9"/>
<path transform="translate(939,699)" d="m0 0 4 1-3 6-5-2-1-3 4 2z" fill="#FDFDFC"/>
<path transform="translate(881,664)" d="m0 0 4 1-2 4h-2l-2 4h-2l3-6-2-1z" fill="#CDCDCA"/>
<path transform="translate(621,653)" d="m0 0 3 2 2 7h-3l-4-7z" fill="#CCCCC9"/>
<path transform="translate(746,365)" d="m0 0 1 2h2l1 3-4-1-4 1-1 3-2-3h2l2-4 3 1z" fill="#FDFDFC"/>
<path transform="translate(814,316)" d="m0 0 1 2h6l1 2-3 1v5h-2l-3-7z" fill="#FDFDFC"/>
<path transform="translate(587,95)" d="m0 0 5 1-1 5-4-1-1-4z" fill="#CCCCC9"/>
<path transform="translate(285,86)" d="m0 0 1 3 4 1v4l2 1-2 3-3-5v-3h-3z" fill="#CCCCC9"/>
<path transform="translate(292,866)" d="m0 0 4 1 2 2v3l-6-1z" fill="#CCCCC9"/>
<path transform="translate(883,710)" d="m0 0 5 2-1 5-3-1-2-5z" fill="#CCCCC9"/>
<path transform="translate(283,248)" d="m0 0 3 1 1 5h-4l-2-4z" fill="#CCCCC9"/>
<path transform="translate(303,117)" d="m0 0h1v5l4 1-1 2h-3v-2h-2v-2h-3l1-3z" fill="#D3D3D0"/>
<path transform="translate(700,715)" d="m0 0 4 1 2 4h-6l-1-4z" fill="#CCCCC9"/>
<path transform="translate(131,699)" d="m0 0 2 1 3 8h-4l-1-1z" fill="#CCCCC9"/>
<path transform="translate(128,680)" d="m0 0 4 2-1 4h2v3h-2v-2l-3-1z" fill="#CCCCC9"/>
<path transform="translate(312,595)" d="m0 0 3 1v5l-4-1-2 3h-2l1-4 4-1z" fill="#CCCCC9"/>
<path transform="translate(311,370)" d="m0 0 4 2v5l-4-1-1-4z" fill="#CCCCC9"/>
<path transform="translate(806,323)" d="m0 0 1 2-1 4 2 1v4l-3 1-1-4 1-3h-2v-3z" fill="#FDFDFC"/>
<path transform="translate(848,275)" d="m0 0 1 2 4 1 2 1v2h-2v4h-2l1-5-4-2z" fill="#CCCCC9"/>
<path transform="translate(805,184)" d="m0 0 4 4v3l-4-1-2-2v-3z" fill="#CCCCC9"/>
<path transform="translate(384,144)" d="m0 0h2l-2 6-5 4 1-5z" fill="#F5F5F4"/>
<path transform="translate(195,859)" d="m0 0 5 2-1 4-4-1-1-4z" fill="#CCCCC9"/>
<path transform="translate(177,658)" d="m0 0 2 2h-2l1 6-2 3-3-1 2-1-1-4z" fill="#FBFBFA"/>
<path transform="translate(834,653)" d="m0 0 1 2 5-1 2-1v4l-5 1-2-1v2l-2-1z" fill="#FDFDFC"/>
<path transform="translate(280,609)" d="m0 0 2 1v5l-3 3-1-4h-2l1-3 3 1z" fill="#FDFDFC"/>
<path transform="translate(201,312)" d="m0 0 3 1 1 4h-2v-2h-2l2 4h-3l-1-5z" fill="#CCCCC9"/>
<path transform="translate(175,302)" d="m0 0h2l4 4 2 1-1 3h-2l-2-3-4-2z" fill="#CCCCC9"/>
<path transform="translate(844,294)" d="m0 0h4v2h-2l1 5-5-1-2-1 1-3 2 2z" fill="#FDFDFC"/>
<path transform="translate(104,276)" d="m0 0 5 3-1 2-3-1v4l-4-1 1-3h2z" fill="#FDFDFC"/>
<path transform="translate(843,276)" d="m0 0h2l-1 4 4 1-2 4-2-1v-3h-2l-1-3z" fill="#CCCCC9"/>
<path transform="translate(865,260)" d="m0 0 2 1v5l-3-1v5l-3-2 1-5h2z" fill="#CCCCC9"/>
<path transform="translate(858,245)" d="m0 0 2 3-2 2v4h-2l-1-2h-3z" fill="#CCCCC9"/>
<path transform="translate(901,218)" d="m0 0h2v3h2l-1 3-8-1v-3l4 1z" fill="#CCCCC9"/>
<path transform="translate(813,137)" d="m0 0 3 1 1 5-7-2v-3l2 1z" fill="#CCCCC9"/>
<path transform="translate(439,579)" d="m0 0 7 6 2 3-5-2-4-5z" fill="#FDFDFC"/>
<path transform="translate(120,496)" d="m0 0 4 2-1 3-3-1z" fill="#EBEBE9"/>
<path transform="translate(333,147)" d="m0 0 3 1-1 3h-2l-1-3z" fill="#E9E9E7"/>
<path transform="translate(109,489)" d="m0 0 3 3h-4z" fill="#E4E4E2"/>
<path transform="translate(367,222)" d="m0 0h2l-2 4-2-1z" fill="#DEDEDC"/>
<path transform="translate(179,351)" d="m0 0h2l-1 4z" fill="#EFEFED"/>
<path transform="translate(936,286)" d="m0 0 3 1-1 2h-2z" fill="#FDFDFC"/>
<path transform="translate(390,269)" d="m0 0 1 4h-2z" fill="#EFEFED"/>
<path transform="translate(448,588)" d="m0 0 4 2h-3z" fill="#FDFDFC"/>
<path transform="translate(574,419)" d="m0 0 4 2h-3z" fill="#DCDCDA"/>
<path transform="translate(388,265)" d="m0 0 2 1-1 3z" fill="#DCDCDA"/>
<path transform="translate(717,945)" d="m0 0 2 2h-3z" fill="#F3F3F1"/>
<path transform="translate(871,648)" d="m0 0h2l-1 3z" fill="#D5D5D3"/>
<path transform="translate(162,639)" d="m0 0 3 3-3-1z" fill="#DFDFDD"/>
<path transform="translate(248,603)" d="m0 0h2l-1 3z" fill="#DFDFDD"/>
<path transform="translate(245,388)" d="m0 0 3 3-3-1z" fill="#D5D5D3"/>
<path transform="translate(910,287)" d="m0 0h2v2l-3-1z" fill="#F3F3F1"/>
<path transform="translate(356,198)" d="m0 0 3 1-3 1z" fill="#E9E9E7"/>
<path transform="translate(332,143)" d="m0 0v3l-2-1z" fill="#E9E9E7"/>
<path transform="translate(309,92)" d="m0 0 1 2-3 1v-2z" fill="#E9E9E7"/>
<path transform="translate(713,943)" d="m0 0h2v2h-2z" fill="#E4E4E2"/>
<path transform="translate(613,905)" d="m0 0h2v2h-2z" fill="#FDFDFC"/>
<path transform="translate(658,793)" d="m0 0v3z" fill="#F0F0EF"/>
<path transform="translate(886,658)" d="m0 0h2v2h-2z" fill="#E4E4E2"/>
<path transform="translate(873,656)" d="m0 0h2v2h-2z" fill="#E4E4E2"/>
<path transform="translate(854,649)" d="m0 0 3 1h-3z" fill="#FDFDFC"/>
<path transform="translate(254,597)" d="m0 0h2v2h-2z" fill="#E4E4E2"/>
<path transform="translate(313,427)" d="m0 0h2v2h-2z" fill="#E4E4E2"/>
<path transform="translate(684,419)" d="m0 0h2v2h-2z" fill="#E4E4E2"/>
<path transform="translate(721,398)" d="m0 0h2v2h-2z" fill="#F0F0EF"/>
<path transform="translate(789,363)" d="m0 0h2v2h-2z" fill="#E4E4E2"/>
<path transform="translate(164,351)" d="m0 0h2v2h-2z" fill="#D8D8D5"/>
<path transform="translate(154,340)" d="m0 0h2v2h-2z" fill="#CCCCC9"/>
<path transform="translate(846,336)" d="m0 0h2v2h-2z" fill="#F0F0EF"/>
<path transform="translate(400,300)" d="m0 0h2v2h-2z" fill="#E4E4E2"/>
<path transform="translate(927,279)" d="m0 0v3z" fill="#D8D8D5"/>
<path transform="translate(386,261)" d="m0 0 2 1-1 2z" fill="#FDFDFC"/>
<path transform="translate(346,203)" d="m0 0v3z" fill="#CCCCC9"/>
<path transform="translate(356,191)" d="m0 0 2 1h-3z" fill="#D8D8D5"/>
<path transform="translate(350,183)" d="m0 0 3 1h-3z" fill="#F0F0EF"/>
<path transform="translate(421,176)" d="m0 0 4 1z" fill="#FDFDFC"/>
<path transform="translate(325,131)" d="m0 0 2 1h-3z" fill="#F0F0EF"/>
<path transform="translate(305,88)" d="m0 0 2 2-3-1z" fill="#F0F0EF"/>
<path transform="translate(483,970)" d="m0 0 2 2h-2z" fill="#FDFDFC"/>
<path transform="translate(654,787)" d="m0 0 3 1z" fill="#FDFDFC"/>
<path transform="translate(858,644)" d="m0 0 2 2h-2z" fill="#ECECEB"/>
<path transform="translate(853,642)" d="m0 0 2 2h-2z" fill="#FDFDFC"/>
<path transform="translate(823,623)" d="m0 0" fill="#ECECEB"/>
<path transform="translate(814,622)" d="m0 0h2l-1 2z" fill="#CCCCC9"/>
<path transform="translate(130,501)" d="m0 0 2 2h-2z" fill="#ECECEB"/>
<path transform="translate(748,386)" d="m0 0 2 2h-2z" fill="#DCDCDA"/>
<path transform="translate(229,381)" d="m0 0 2 2h-2z" fill="#DCDCDA"/>
<path transform="translate(216,379)" d="m0 0h2l-1 2z" fill="#CCCCC9"/>
<path transform="translate(754,375)" d="m0 0 2 2h-2z" fill="#ECECEB"/>
<path transform="translate(750,375)" d="m0 0 2 2h-2z" fill="#FDFDFC"/>
<path transform="translate(204,368)" d="m0 0 2 2h-2z" fill="#CCCCC9"/>
<path transform="translate(774,366)" d="m0 0h2l-1 2z" fill="#ECECEB"/>
<path transform="translate(794,358)" d="m0 0h2l-1 2z" fill="#DCDCDA"/>
<path transform="translate(184,353)" d="m0 0 2 2h-2z" fill="#ECECEB"/>
<path transform="translate(150,341)" d="m0 0 2 1-2 1z" fill="#ECECEB"/>
<path transform="translate(864,318)" d="m0 0" fill="#ECECEB"/>
<path transform="translate(902,294)" d="m0 0 2 2h-2z" fill="#DCDCDA"/>
<path transform="translate(486,868)" d="m0 0 2 1z" fill="#FDFDFC"/>
<path transform="translate(671,843)" d="m0 0 2 1z" fill="#E4E4E2"/>
<path transform="translate(660,821)" d="m0 0" fill="#FDFDFC"/>
<path transform="translate(657,814)" d="m0 0 2 1z" fill="#E4E4E2"/>
<path transform="translate(652,783)" d="m0 0 2 1z" fill="#FDFDFC"/>
<path transform="translate(636,775)" d="m0 0 2 1z" fill="#FDFDFC"/>
<path transform="translate(630,761)" d="m0 0" fill="#E4E4E2"/>
<path transform="translate(501,742)" d="m0 0 2 1z" fill="#E4E4E2"/>
<path transform="translate(935,691)" d="m0 0" fill="#CCCCC9"/>
<path transform="translate(67,673)" d="m0 0" fill="#CCCCC9"/>
<path transform="translate(868,654)" d="m0 0" fill="#CCCCC9"/>
<path transform="translate(845,647)" d="m0 0" fill="#CCCCC9"/>
<path transform="translate(846,645)" d="m0 0 2 1z" fill="#E4E4E2"/>
<path transform="translate(827,627)" d="m0 0 2 1z" fill="#CCCCC9"/>
<path transform="translate(802,623)" d="m0 0 2 1z" fill="#FDFDFC"/>
<path transform="translate(210,618)" d="m0 0" fill="#E4E4E2"/>
<path transform="translate(791,617)" d="m0 0" fill="#FDFDFC"/>
<path transform="translate(766,604)" d="m0 0" fill="#CCCCC9"/>
<path transform="translate(760,605)" d="m0 0 2 1z" fill="#E4E4E2"/>
<path transform="translate(759,601)" d="m0 0 2 1z" fill="#E4E4E2"/>
<path transform="translate(289,585)" d="m0 0 2 1z" fill="#E4E4E2"/>
<path transform="translate(701,570)" d="m0 0" fill="#E4E4E2"/>
<path transform="translate(341,555)" d="m0 0 2 1z" fill="#CCCCC9"/>
<path transform="translate(696,418)" d="m0 0 2 1z" fill="#E4E4E2"/>
<path transform="translate(698,414)" d="m0 0" fill="#FDFDFC"/>
<path transform="translate(273,403)" d="m0 0" fill="#E4E4E2"/>
<path transform="translate(728,399)" d="m0 0 2 1z" fill="#FDFDFC"/>
<path transform="translate(260,397)" d="m0 0" fill="#CCCCC9"/>
<path transform="translate(258,396)" d="m0 0" fill="#FDFDFC"/>
<path transform="translate(734,389)" d="m0 0 2 1z" fill="#E4E4E2"/>
<path transform="translate(239,387)" d="m0 0" fill="#FDFDFC"/>
<path transform="translate(738,386)" d="m0 0" fill="#E4E4E2"/>
<path transform="translate(752,385)" d="m0 0 2 1z" fill="#E4E4E2"/>
<path transform="translate(237,383)" d="m0 0" fill="#CCCCC9"/>
<path transform="translate(756,382)" d="m0 0" fill="#E4E4E2"/>
<path transform="translate(236,381)" d="m0 0 2 1z" fill="#CCCCC9"/>
<path transform="translate(223,378)" d="m0 0" fill="#E4E4E2"/>
<path transform="translate(799,370)" d="m0 0" fill="#FDFDFC"/>
<path transform="translate(209,367)" d="m0 0" fill="#CCCCC9"/>
<path transform="translate(201,364)" d="m0 0" fill="#CCCCC9"/>
<path transform="translate(194,365)" d="m0 0 2 1z" fill="#E4E4E2"/>
<path transform="translate(781,363)" d="m0 0 2 1z" fill="#CCCCC9"/>
<path transform="translate(190,362)" d="m0 0 2 1z" fill="#E4E4E2"/>
<path transform="translate(453,359)" d="m0 0 2 1z" fill="#E4E4E2"/>
<path transform="translate(799,354)" d="m0 0 2 1z" fill="#CCCCC9"/>
<path transform="translate(189,354)" d="m0 0 2 1z" fill="#E4E4E2"/>
<path transform="translate(161,350)" d="m0 0" fill="#E4E4E2"/>
<path transform="translate(817,345)" d="m0 0 2 1z" fill="#FDFDFC"/>
<path transform="translate(151,334)" d="m0 0" fill="#FDFDFC"/>
<path transform="translate(147,335)" d="m0 0 2 1z" fill="#E4E4E2"/>
<path transform="translate(868,318)" d="m0 0" fill="#FDFDFC"/>
<path transform="translate(898,294)" d="m0 0" fill="#E4E4E2"/>
<path transform="translate(915,287)" d="m0 0" fill="#CCCCC9"/>
<path transform="translate(922,283)" d="m0 0" fill="#E4E4E2"/>
<path transform="translate(939,279)" d="m0 0" fill="#FDFDFC"/>
<path transform="translate(393,277)" d="m0 0" fill="#FDFDFC"/>
<path transform="translate(340,193)" d="m0 0" fill="#FDFDFC"/>
<path transform="translate(352,188)" d="m0 0 2 1z" fill="#E4E4E2"/>
<path transform="translate(416,121)" d="m0 0 2 1z" fill="#FDFDFC"/>
<path transform="translate(420,118)" d="m0 0 2 1z" fill="#E4E4E2"/>
<path transform="translate(478,995)" d="m0 0" fill="#FDFDFC"/>
<path transform="translate(487,966)" d="m0 0" fill="#FDFDFC"/>
<path transform="translate(487,946)" d="m0 0" fill="#CCCCC9"/>
<path transform="translate(722,941)" d="m0 0" fill="#CCCCC9"/>
<path transform="translate(720,937)" d="m0 0" fill="#CCCCC9"/>
<path transform="translate(718,928)" d="m0 0" fill="#CCCCC9"/>
<path transform="translate(716,924)" d="m0 0" fill="#CCCCC9"/>
<path transform="translate(487,923)" d="m0 0" fill="#FDFDFC"/>
<path transform="translate(484,906)" d="m0 0" fill="#FDFDFC"/>
<path transform="translate(488,905)" d="m0 0" fill="#CCCCC9"/>
<path transform="translate(484,902)" d="m0 0" fill="#CCCCC9"/>
<path transform="translate(490,894)" d="m0 0" fill="#CCCCC9"/>
<path transform="translate(494,890)" d="m0 0" fill="#CCCCC9"/>
<path transform="translate(490,890)" d="m0 0" fill="#CCCCC9"/>
<path transform="translate(693,885)" d="m0 0" fill="#FDFDFC"/>
<path transform="translate(488,885)" d="m0 0" fill="#FDFDFC"/>
<path transform="translate(677,855)" d="m0 0" fill="#FDFDFC"/>
<path transform="translate(488,848)" d="m0 0" fill="#CCCCC9"/>
<path transform="translate(484,847)" d="m0 0" fill="#CCCCC9"/>
<path transform="translate(679,836)" d="m0 0" fill="#FDFDFC"/>
<path transform="translate(660,798)" d="m0 0" fill="#FDFDFC"/>
<path transform="translate(642,783)" d="m0 0" fill="#CCCCC9"/>
<path transform="translate(493,778)" d="m0 0" fill="#CCCCC9"/>
<path transform="translate(498,743)" d="m0 0" fill="#CCCCC9"/>
<path transform="translate(500,731)" d="m0 0" fill="#FDFDFC"/>
<path transform="translate(502,729)" d="m0 0" fill="#FDFDFC"/>
<path transform="translate(502,720)" d="m0 0" fill="#CCCCC9"/>
<path transform="translate(502,712)" d="m0 0" fill="#CCCCC9"/>
<path transform="translate(957,699)" d="m0 0" fill="#FDFDFC"/>
<path transform="translate(59,676)" d="m0 0" fill="#CCCCC9"/>
<path transform="translate(64,675)" d="m0 0" fill="#CCCCC9"/>
<path transform="translate(62,672)" d="m0 0" fill="#CCCCC9"/>
<path transform="translate(860,650)" d="m0 0" fill="#CCCCC9"/>
<path transform="translate(844,649)" d="m0 0" fill="#CCCCC9"/>
<path transform="translate(866,645)" d="m0 0" fill="#FDFDFC"/>
<path transform="translate(867,641)" d="m0 0" fill="#FDFDFC"/>
<path transform="translate(166,640)" d="m0 0" fill="#CCCCC9"/>
<path transform="translate(851,639)" d="m0 0" fill="#CCCCC9"/>
<path transform="translate(167,639)" d="m0 0" fill="#CCCCC9"/>
<path transform="translate(844,637)" d="m0 0" fill="#CCCCC9"/>
<path transform="translate(155,637)" d="m0 0" fill="#CCCCC9"/>
<path transform="translate(823,636)" d="m0 0" fill="#FDFDFC"/>
<path transform="translate(827,635)" d="m0 0" fill="#CCCCC9"/>
<path transform="translate(189,627)" d="m0 0" fill="#FDFDFC"/>
<path transform="translate(824,626)" d="m0 0" fill="#CCCCC9"/>
<path transform="translate(808,625)" d="m0 0" fill="#FDFDFC"/>
<path transform="translate(800,622)" d="m0 0" fill="#FDFDFC"/>
<path transform="translate(795,616)" d="m0 0" fill="#CCCCC9"/>
<path transform="translate(790,616)" d="m0 0" fill="#CCCCC9"/>
<path transform="translate(785,614)" d="m0 0" fill="#CCCCC9"/>
<path transform="translate(771,608)" d="m0 0" fill="#CCCCC9"/>
<path transform="translate(876,606)" d="m0 0" fill="#CCCCC9"/>
<path transform="translate(255,602)" d="m0 0" fill="#CCCCC9"/>
<path transform="translate(926,600)" d="m0 0" fill="#CCCCC9"/>
<path transform="translate(260,597)" d="m0 0" fill="#FDFDFC"/>
<path transform="translate(452,591)" d="m0 0" fill="#FDFDFC"/>
<path transform="translate(590,578)" d="m0 0" fill="#FDFDFC"/>
<path transform="translate(438,578)" d="m0 0" fill="#FDFDFC"/>
<path transform="translate(437,577)" d="m0 0" fill="#FDFDFC"/>
<path transform="translate(436,576)" d="m0 0" fill="#FDFDFC"/>
<path transform="translate(435,575)" d="m0 0" fill="#FDFDFC"/>
<path transform="translate(434,574)" d="m0 0" fill="#FDFDFC"/>
<path transform="translate(680,426)" d="m0 0" fill="#FDFDFC"/>
<path transform="translate(674,426)" d="m0 0" fill="#FDFDFC"/>
<path transform="translate(578,422)" d="m0 0" fill="#FDFDFC"/>
<path transform="translate(307,422)" d="m0 0" fill="#CCCCC9"/>
<path transform="translate(305,420)" d="m0 0" fill="#FDFDFC"/>
<path transform="translate(573,418)" d="m0 0" fill="#FDFDFC"/>
<path transform="translate(702,417)" d="m0 0" fill="#FDFDFC"/>
<path transform="translate(572,417)" d="m0 0" fill="#FDFDFC"/>
<path transform="translate(694,416)" d="m0 0" fill="#FDFDFC"/>
<path transform="translate(571,416)" d="m0 0" fill="#FDFDFC"/>
<path transform="translate(701,411)" d="m0 0" fill="#FDFDFC"/>
<path transform="translate(287,411)" d="m0 0" fill="#FDFDFC"/>
<path transform="translate(712,403)" d="m0 0" fill="#FDFDFC"/>
<path transform="translate(266,403)" d="m0 0" fill="#CCCCC9"/>
<path transform="translate(720,402)" d="m0 0" fill="#FDFDFC"/>
<path transform="translate(265,396)" d="m0 0" fill="#CCCCC9"/>
<path transform="translate(250,395)" d="m0 0" fill="#FDFDFC"/>
<path transform="translate(739,393)" d="m0 0" fill="#FDFDFC"/>
<path transform="translate(235,390)" d="m0 0" fill="#CCCCC9"/>
<path transform="translate(250,389)" d="m0 0" fill="#FDFDFC"/>
<path transform="translate(760,386)" d="m0 0" fill="#CCCCC9"/>
<path transform="translate(228,386)" d="m0 0" fill="#FDFDFC"/>
<path transform="translate(761,385)" d="m0 0" fill="#CCCCC9"/>
<path transform="translate(215,375)" d="m0 0" fill="#CCCCC9"/>
<path transform="translate(211,374)" d="m0 0" fill="#CCCCC9"/>
<path transform="translate(199,371)" d="m0 0" fill="#CCCCC9"/>
<path transform="translate(800,369)" d="m0 0" fill="#CCCCC9"/>
<path transform="translate(206,364)" d="m0 0" fill="#FDFDFC"/>
<path transform="translate(795,363)" d="m0 0" fill="#FDFDFC"/>
<path transform="translate(200,363)" d="m0 0" fill="#CCCCC9"/>
<path transform="translate(819,359)" d="m0 0" fill="#FDFDFC"/>
<path transform="translate(801,359)" d="m0 0" fill="#FDFDFC"/>
<path transform="translate(814,358)" d="m0 0" fill="#FDFDFC"/>
<path transform="translate(188,358)" d="m0 0" fill="#FDFDFC"/>
<path transform="translate(163,358)" d="m0 0" fill="#CCCCC9"/>
<path transform="translate(804,354)" d="m0 0" fill="#FDFDFC"/>
<path transform="translate(175,354)" d="m0 0" fill="#FDFDFC"/>
<path transform="translate(162,347)" d="m0 0" fill="#CCCCC9"/>
<path transform="translate(823,345)" d="m0 0" fill="#CCCCC9"/>
<path transform="translate(814,345)" d="m0 0" fill="#FDFDFC"/>
<path transform="translate(830,344)" d="m0 0" fill="#CCCCC9"/>
<path transform="translate(837,343)" d="m0 0" fill="#CCCCC9"/>
<path transform="translate(165,343)" d="m0 0" fill="#CCCCC9"/>
<path transform="translate(853,337)" d="m0 0" fill="#FDFDFC"/>
<path transform="translate(835,337)" d="m0 0" fill="#FDFDFC"/>
<path transform="translate(156,336)" d="m0 0" fill="#FDFDFC"/>
<path transform="translate(152,333)" d="m0 0" fill="#FDFDFC"/>
<path transform="translate(837,330)" d="m0 0" fill="#CCCCC9"/>
<path transform="translate(844,328)" d="m0 0" fill="#FDFDFC"/>
<path transform="translate(837,327)" d="m0 0" fill="#CCCCC9"/>
<path transform="translate(851,323)" d="m0 0" fill="#CCCCC9"/>
<path transform="translate(82,319)" d="m0 0" fill="#CCCCC9"/>
<path transform="translate(871,317)" d="m0 0" fill="#FDFDFC"/>
<path transform="translate(860,317)" d="m0 0" fill="#FDFDFC"/>
<path transform="translate(867,315)" d="m0 0" fill="#CCCCC9"/>
<path transform="translate(890,313)" d="m0 0" fill="#FDFDFC"/>
<path transform="translate(880,313)" d="m0 0" fill="#FDFDFC"/>
<path transform="translate(886,309)" d="m0 0" fill="#FDFDFC"/>
<path transform="translate(881,309)" d="m0 0" fill="#FDFDFC"/>
<path transform="translate(900,300)" d="m0 0" fill="#CCCCC9"/>
<path transform="translate(921,291)" d="m0 0" fill="#FDFDFC"/>
<path transform="translate(907,286)" d="m0 0" fill="#FDFDFC"/>
<path transform="translate(918,283)" d="m0 0" fill="#FDFDFC"/>
<path transform="translate(394,281)" d="m0 0" fill="#FDFDFC"/>
<path transform="translate(930,277)" d="m0 0" fill="#CCCCC9"/>
<path transform="translate(938,273)" d="m0 0" fill="#FDFDFC"/>
<path transform="translate(373,261)" d="m0 0" fill="#CCCCC9"/>
<path transform="translate(380,248)" d="m0 0" fill="#CCCCC9"/>
<path transform="translate(372,242)" d="m0 0" fill="#FDFDFC"/>
<path transform="translate(367,214)" d="m0 0" fill="#CCCCC9"/>
<path transform="translate(362,212)" d="m0 0" fill="#FDFDFC"/>
<path transform="translate(359,203)" d="m0 0" fill="#CCCCC9"/>
<path transform="translate(358,202)" d="m0 0" fill="#FDFDFC"/>
<path transform="translate(345,193)" d="m0 0" fill="#FDFDFC"/>
<path transform="translate(353,185)" d="m0 0" fill="#FDFDFC"/>
<path transform="translate(418,175)" d="m0 0" fill="#CCCCC9"/>
<path transform="translate(328,141)" d="m0 0" fill="#CCCCC9"/>
<path transform="translate(323,127)" d="m0 0" fill="#CCCCC9"/>
<path transform="translate(415,122)" d="m0 0" fill="#FDFDFC"/>
<path transform="translate(418,120)" d="m0 0" fill="#CCCCC9"/>
<path transform="translate(419,119)" d="m0 0" fill="#CCCCC9"/>
<path transform="translate(311,101)" d="m0 0" fill="#CCCCC9"/>
<path transform="translate(308,100)" d="m0 0" fill="#FDFDFC"/>
<path transform="translate(301,82)" d="m0 0" fill="#CCCCC9"/>
</svg>
